<svg xmlns="http://www.w3.org/2000/svg" width="27" height="36" viewBox="0 0 27 36">
  <g id="bookmark" transform="translate(-21 -118)">
    <path id="Icon_awesome-bookmark" data-name="Icon awesome-bookmark" d="M0,36V3.375A3.544,3.544,0,0,1,1.057.922,3.186,3.186,0,0,1,3.375,0h20.25A3.375,3.375,0,0,1,27,3.375V36L13.5,28.125Z" transform="translate(21 118)" fill="#514f4f" opacity="0.87"/>
    <path id="Icon_ionic-ios-add" data-name="Icon ionic-ios-add" d="M19.316,13.8H15.171V9.652a.687.687,0,0,0-1.374,0V13.8H9.652a.687.687,0,0,0,0,1.374H13.8v4.145a.687.687,0,0,0,1.374,0V15.171h4.145a.687.687,0,0,0,0-1.374Z" transform="translate(20.016 118.068)" fill="#fff"/>
  </g>
</svg>
